<svg width="397" height="427" viewBox="0 0 397 427" fill="none" xmlns="http://www.w3.org/2000/svg">
<path d="M73.3291 220.125H107.433C108.932 240 116.802 258 129.169 272.25L104.809 296.625L114.928 306.75L139.287 282.375C153.528 294.75 171.517 302.25 191.379 304.125V338.25H205.62V304.125C225.483 302.625 243.471 294.75 257.712 282.375L282.072 306.75L292.191 296.625L267.831 272.25C280.198 258 288.068 240 289.567 220.125H323.671V205.875H289.567C288.068 186 280.198 168 267.831 153.75L292.191 129.375L282.072 119.25L257.712 143.625C243.471 131.25 225.483 123.75 205.62 121.875V87.7498H191.379V121.875C171.517 123.375 153.528 131.25 139.287 143.625L114.928 119.25L104.809 129.375L129.169 153.75C116.802 168 108.932 186 107.433 205.875H73.3291V220.125ZM199.249 289.875C156.901 289.875 122.423 255.375 122.423 213C122.423 170.625 156.901 136.125 199.249 136.125C241.598 136.125 276.076 170.625 276.076 213C276.076 255.375 241.598 289.875 199.249 289.875Z" fill="white"/>
<path d="M212.367 30.375C214.991 27 216.864 22.875 216.864 18.375C216.864 8.25 208.62 0 198.501 0C188.382 0 180.138 8.25 180.138 18.375C180.138 22.875 181.637 27 184.635 30.375C179.013 33.375 175.266 38.625 174.141 45L172.642 60C172.268 62.25 173.767 64.125 176.015 64.875C183.51 66.75 191.006 67.5 198.876 67.5C206.746 67.5 214.241 66.375 221.736 64.875C223.985 64.5 225.109 62.25 225.109 60L223.235 45C222.111 38.625 217.989 33.375 212.367 30.375ZM198.501 9C203.748 9 207.87 13.125 207.87 18.375C207.87 23.625 203.748 27.75 198.501 27.75C193.254 27.75 189.132 23.625 189.132 18.375C189.132 13.125 193.254 9 198.501 9ZM181.637 57L183.136 46.125C183.885 40.875 188.008 36.75 193.629 36.75H204.122C209.369 36.75 213.866 40.875 214.616 46.125L216.115 57C204.497 59.25 192.505 59.25 181.637 57Z" fill="url(#paint0_linear)"/>
<path d="M346.155 100.125C348.779 96.7502 350.652 92.6252 350.652 88.1252C350.652 78.0002 342.408 69.7502 332.289 69.7502C322.17 69.7502 313.926 78.0002 313.926 88.1252C313.926 92.6252 315.425 96.7502 318.423 100.125C312.801 103.125 309.054 108.375 307.929 114.75L306.43 129.75C306.056 132 307.555 133.875 309.803 134.625C317.299 136.5 324.794 137.25 332.664 137.25C340.534 137.25 348.029 136.125 355.524 134.625C357.773 134.25 358.897 132 358.897 129.75L357.023 114.75C355.524 108.375 351.777 103.125 346.155 100.125ZM332.289 78.7502C337.536 78.7502 341.658 82.8752 341.658 88.1252C341.658 93.3752 337.536 97.5002 332.289 97.5002C327.042 97.5002 322.92 93.3752 322.92 88.1252C322.545 83.2502 327.042 78.7502 332.289 78.7502ZM315.425 126.75L316.924 115.875C317.673 110.625 321.796 106.5 327.417 106.5H337.911C343.157 106.5 347.654 110.625 348.404 115.875L349.903 126.75C338.285 129 326.293 129 315.425 126.75Z" fill="url(#paint1_linear)"/>
<path d="M76.7032 100.125C79.3265 96.7502 81.2003 92.6252 81.2003 88.1252C81.2003 78.0002 72.9555 69.7502 62.8369 69.7502C52.7183 69.7502 44.4735 78.0002 44.4735 88.1252C44.4735 92.6252 45.9726 96.7502 48.9707 100.125C43.3493 103.125 39.6016 108.375 38.4773 114.75L36.9783 129.75C36.6035 132 38.1026 133.875 40.3512 134.625C47.8464 136.5 55.3417 137.25 63.2117 137.25C71.0817 137.25 78.577 136.125 86.0722 134.625C88.3208 134.25 89.4451 132 89.4451 129.75L87.5713 114.75C86.447 108.375 82.3246 103.125 76.7032 100.125ZM62.8369 78.7502C68.0836 78.7502 72.206 82.8752 72.206 88.1252C72.206 93.3752 68.0836 97.5002 62.8369 97.5002C57.5902 97.5002 53.4679 93.3752 53.4679 88.1252C53.4679 83.2502 57.5902 78.7502 62.8369 78.7502ZM45.9726 126.75L47.4716 115.875C48.2212 110.625 52.3436 106.5 57.965 106.5H68.4584C73.705 106.5 78.2022 110.625 78.9517 115.875L80.4508 126.75C68.8331 129 56.8407 129 45.9726 126.75Z" fill="url(#paint2_linear)"/>
<path d="M212.367 389.25C214.991 385.875 216.864 381.75 216.864 377.25C216.864 367.125 208.62 358.875 198.501 358.875C188.382 358.875 180.138 367.125 180.138 377.25C180.138 381.75 181.637 385.875 184.635 389.25C179.013 392.25 175.266 397.5 174.141 403.875L172.642 418.875C172.268 421.125 173.767 423 176.015 423.75C183.51 425.625 191.006 426.375 198.876 426.375C206.746 426.375 214.241 425.25 221.736 423.75C223.985 423.375 225.109 421.125 225.109 418.875L223.235 403.875C222.111 397.5 217.989 392.25 212.367 389.25ZM198.501 367.875C203.748 367.875 207.87 372 207.87 377.25C207.87 382.5 203.748 386.625 198.501 386.625C193.254 386.625 189.132 382.5 189.132 377.25C189.132 372 193.254 367.875 198.501 367.875ZM181.637 415.875L183.136 405C183.885 399.75 188.008 395.625 193.629 395.625H204.122C209.369 395.625 213.866 399.75 214.616 405L216.115 415.875C204.497 418.125 192.505 418.125 181.637 415.875Z" fill="url(#paint3_linear)"/>
<path d="M346.155 312.75C348.779 309.375 350.652 305.25 350.652 300.75C350.652 290.625 342.408 282.375 332.289 282.375C322.17 282.375 313.926 290.625 313.926 300.75C313.926 305.25 315.425 309.375 318.423 312.75C312.801 315.75 309.054 321 307.929 327.375L306.43 342.375C306.056 344.625 307.555 346.5 309.803 347.25C317.299 349.125 324.794 349.875 332.664 349.875C340.534 349.875 348.029 348.75 355.524 347.25C357.773 346.875 358.897 344.625 358.897 342.375L357.023 327.375C355.524 321.375 351.777 316.125 346.155 312.75ZM332.289 291.75C337.536 291.75 341.658 295.875 341.658 301.125C341.658 306.375 337.536 310.5 332.289 310.5C327.042 310.5 322.92 306.375 322.92 301.125C322.545 295.875 327.042 291.75 332.289 291.75ZM315.425 339.75L316.924 328.875C317.673 323.625 321.796 319.5 327.417 319.5H337.911C343.157 319.5 347.654 323.625 348.404 328.875L349.903 339.75C338.285 341.625 326.293 341.625 315.425 339.75Z" fill="url(#paint4_linear)"/>
<path d="M76.7032 312.75C79.3265 309.375 81.2003 305.25 81.2003 300.75C81.2003 290.625 72.9555 282.375 62.8369 282.375C52.7183 282.375 44.4735 290.625 44.4735 300.75C44.4735 305.25 45.9726 309.375 48.9707 312.75C43.3493 315.75 39.6016 321 38.4773 327.375L36.9783 342.375C36.6035 344.625 38.1026 346.5 40.3512 347.25C47.8464 349.125 55.3417 349.875 63.2117 349.875C71.0817 349.875 78.577 348.75 86.0722 347.25C88.3208 346.875 89.4451 344.625 89.4451 342.375L87.5713 327.375C86.447 321.375 82.3246 316.125 76.7032 312.75ZM62.8369 291.75C68.0836 291.75 72.206 295.875 72.206 301.125C72.206 306.375 68.0836 310.5 62.8369 310.5C57.5902 310.5 53.4679 306.375 53.4679 301.125C53.4679 295.875 57.5902 291.75 62.8369 291.75ZM45.9726 339.75L47.4716 328.875C48.2212 323.625 52.3436 319.5 57.965 319.5H68.4584C73.705 319.5 78.2022 323.625 78.9517 328.875L80.4508 339.75C68.8331 341.625 56.8407 341.625 45.9726 339.75Z" fill="url(#paint5_linear)"/>
<path d="M384.009 209.625C386.632 206.25 388.506 202.125 388.506 197.625C388.506 187.5 380.261 179.25 370.143 179.25C360.024 179.25 351.779 187.5 351.779 197.625C351.779 202.125 353.278 206.25 356.276 209.625C350.655 212.625 346.907 217.875 345.783 224.25L344.284 239.25C343.909 241.5 345.408 243.375 347.657 244.125C355.152 246 362.647 246.75 370.517 246.75C378.387 246.75 385.883 245.625 393.378 244.125C395.626 243.75 396.751 241.5 396.751 239.25L394.877 224.25C393.378 218.25 389.63 213 384.009 209.625ZM370.143 188.625C375.389 188.625 379.512 192.75 379.512 198C379.512 203.25 375.389 207.375 370.143 207.375C364.896 207.375 360.774 203.25 360.774 198C360.774 192.75 364.896 188.625 370.143 188.625ZM353.278 236.625L354.777 225.75C355.527 220.5 359.649 216.375 365.271 216.375H375.764C381.011 216.375 385.508 220.5 386.257 225.75L387.756 236.625C376.139 238.5 364.146 238.5 353.278 236.625Z" fill="url(#paint6_linear)"/>
<path d="M41.0984 209.625C43.7218 206.25 45.5956 202.125 45.5956 197.625C45.5956 187.5 37.3508 179.25 27.2322 179.25C17.1136 179.25 8.49406 187.875 8.49406 198C8.49406 202.5 9.99311 206.625 12.9912 210C7.36977 213 3.62214 218.25 2.49785 224.625L0.998799 239.625C0.624036 241.875 2.12309 243.75 4.37166 244.5C11.8669 246.375 19.3622 247.125 27.2322 247.125C35.1022 247.125 42.5975 246 50.0927 244.5C52.3413 244.125 53.4656 241.875 53.4656 239.625L51.5918 224.625C50.4675 218.25 46.3451 213 41.0984 209.625ZM27.2322 188.625C32.4789 188.625 36.6013 192.75 36.6013 198C36.6013 203.25 32.4789 207.375 27.2322 207.375C21.9855 207.375 17.8631 203.25 17.8631 198C17.4884 192.75 21.9855 188.625 27.2322 188.625ZM10.3679 236.625L11.8669 225.75C12.6164 220.5 16.7388 216.375 22.3603 216.375H32.8536C38.1003 216.375 42.5975 220.5 43.347 225.75L44.846 236.625C32.8536 238.5 21.236 238.5 10.3679 236.625Z" fill="url(#paint7_linear)"/>
<path d="M155.605 216C155.286 216 154.998 215.888 154.742 215.664C154.518 215.408 154.406 215.12 154.406 214.8V211.2C154.406 210.24 154.806 209.44 155.605 208.8L160.07 204.432C163.11 202.128 165.398 200.336 166.934 199.056C168.502 197.776 169.686 196.624 170.486 195.6C171.318 194.544 171.734 193.552 171.734 192.624C171.734 190.256 170.55 189.072 168.182 189.072C166.934 189.072 165.974 189.456 165.302 190.224C164.63 190.96 164.182 191.888 163.958 193.008C163.766 193.744 163.222 194.112 162.326 194.112H155.99C155.702 194.112 155.446 194.016 155.222 193.824C155.03 193.6 154.934 193.36 154.934 193.104C154.998 190.992 155.574 189.088 156.662 187.392C157.782 185.664 159.334 184.304 161.318 183.312C163.302 182.288 165.59 181.776 168.182 181.776C170.87 181.776 173.19 182.208 175.142 183.072C177.094 183.936 178.566 185.152 179.557 186.72C180.582 188.288 181.094 190.112 181.094 192.192C181.094 194.496 180.374 196.576 178.934 198.432C177.526 200.288 175.366 202.304 172.454 204.48L168.47 208.464H180.614C180.966 208.464 181.254 208.576 181.478 208.8C181.702 209.024 181.814 209.312 181.814 209.664V214.8C181.814 215.12 181.702 215.408 181.478 215.664C181.254 215.888 180.966 216 180.614 216H155.605ZM200.306 216.48C195.89 216.448 192.53 215.28 190.226 212.976C187.922 210.672 186.658 207.632 186.434 203.856C186.37 202.128 186.338 200.576 186.338 199.2C186.338 197.792 186.37 196.192 186.434 194.4C186.562 192 187.154 189.872 188.21 188.016C189.298 186.128 190.85 184.64 192.866 183.552C194.914 182.464 197.394 181.92 200.306 181.92C203.218 181.92 205.698 182.464 207.746 183.552C209.794 184.64 211.346 186.128 212.402 188.016C213.49 189.872 214.098 192 214.226 194.4C214.29 195.296 214.322 196.896 214.322 199.2C214.322 201.44 214.29 202.992 214.226 203.856C214.002 207.632 212.738 210.672 210.434 212.976C208.13 215.28 204.754 216.448 200.306 216.48ZM200.306 209.232C201.81 209.232 202.93 208.752 203.666 207.792C204.402 206.8 204.802 205.408 204.866 203.616C204.93 202.688 204.962 201.184 204.962 199.104C204.962 197.024 204.93 195.552 204.866 194.688C204.802 192.96 204.402 191.6 203.666 190.608C202.93 189.584 201.81 189.072 200.306 189.072C197.426 189.072 195.906 190.944 195.746 194.688C195.714 195.552 195.698 197.024 195.698 199.104C195.698 201.184 195.714 202.688 195.746 203.616C195.906 207.36 197.426 209.232 200.306 209.232ZM233.118 216.48C228.702 216.448 225.342 215.28 223.038 212.976C220.734 210.672 219.47 207.632 219.246 203.856C219.182 202.128 219.15 200.576 219.15 199.2C219.15 197.792 219.182 196.192 219.246 194.4C219.374 192 219.966 189.872 221.022 188.016C222.11 186.128 223.662 184.64 225.678 183.552C227.726 182.464 230.206 181.92 233.118 181.92C236.03 181.92 238.51 182.464 240.558 183.552C242.606 184.64 244.158 186.128 245.214 188.016C246.302 189.872 246.91 192 247.038 194.4C247.102 195.296 247.134 196.896 247.134 199.2C247.134 201.44 247.102 202.992 247.038 203.856C246.814 207.632 245.55 210.672 243.246 212.976C240.942 215.28 237.566 216.448 233.118 216.48ZM233.118 209.232C234.622 209.232 235.742 208.752 236.478 207.792C237.214 206.8 237.614 205.408 237.678 203.616C237.742 202.688 237.774 201.184 237.774 199.104C237.774 197.024 237.742 195.552 237.678 194.688C237.614 192.96 237.214 191.6 236.478 190.608C235.742 189.584 234.622 189.072 233.118 189.072C230.238 189.072 228.718 190.944 228.558 194.688C228.526 195.552 228.51 197.024 228.51 199.104C228.51 201.184 228.526 202.688 228.558 203.616C228.718 207.36 230.238 209.232 233.118 209.232Z" fill="white"/>
<path d="M158.399 239C158.138 239 157.923 238.931 157.755 238.793C157.601 238.64 157.509 238.456 157.479 238.241L155.018 223.521C155.002 223.49 154.995 223.444 154.995 223.383C154.995 223.26 155.041 223.153 155.133 223.061C155.24 222.954 155.355 222.9 155.478 222.9H158.491C158.935 222.9 159.181 223.076 159.227 223.429L160.63 232.123L162.217 227.086C162.339 226.672 162.592 226.465 162.976 226.465H164.701C165.084 226.465 165.337 226.672 165.46 227.086L167.047 232.1L168.473 223.429C168.503 223.245 168.572 223.115 168.68 223.038C168.787 222.946 168.956 222.9 169.186 222.9H172.199C172.337 222.9 172.452 222.954 172.544 223.061C172.636 223.153 172.682 223.26 172.682 223.383V223.521L170.221 238.241C170.19 238.456 170.09 238.64 169.922 238.793C169.753 238.931 169.546 239 169.301 239H166.978C166.732 239 166.541 238.939 166.403 238.816C166.265 238.693 166.173 238.555 166.127 238.402L163.85 232.031L161.573 238.402C161.511 238.555 161.412 238.693 161.274 238.816C161.136 238.939 160.944 239 160.699 239H158.399ZM175.557 239C175.404 239 175.266 238.946 175.143 238.839C175.036 238.716 174.982 238.578 174.982 238.425V223.475C174.982 223.306 175.036 223.168 175.143 223.061C175.266 222.954 175.404 222.9 175.557 222.9H178.846C179.015 222.9 179.153 222.954 179.26 223.061C179.367 223.168 179.421 223.306 179.421 223.475V238.425C179.421 238.578 179.367 238.716 179.26 238.839C179.153 238.946 179.015 239 178.846 239H175.557ZM183.126 239C182.973 239 182.835 238.946 182.712 238.839C182.605 238.716 182.551 238.578 182.551 238.425V223.498C182.551 223.329 182.605 223.191 182.712 223.084C182.82 222.961 182.958 222.9 183.126 222.9H189.175C191.445 222.9 193.208 223.444 194.465 224.533C195.723 225.606 196.382 227.155 196.443 229.179C196.459 229.624 196.466 230.214 196.466 230.95C196.466 231.686 196.459 232.269 196.443 232.698C196.29 236.899 193.906 239 189.29 239H183.126ZM189.175 235.55C190.141 235.55 190.854 235.32 191.314 234.86C191.774 234.4 192.02 233.664 192.05 232.652C192.081 232.207 192.096 231.632 192.096 230.927C192.096 230.222 192.081 229.654 192.05 229.225C192.02 228.244 191.751 227.523 191.245 227.063C190.755 226.588 190.026 226.35 189.06 226.35H186.875V235.55H189.175ZM198.833 239C198.664 239 198.518 238.946 198.396 238.839C198.288 238.716 198.235 238.571 198.235 238.402V236.056C198.235 235.857 198.265 235.703 198.327 235.596C198.388 235.489 198.472 235.366 198.58 235.228L205.894 226.465H199.04C198.886 226.465 198.748 226.411 198.626 226.304C198.518 226.181 198.465 226.043 198.465 225.89V223.498C198.465 223.329 198.518 223.191 198.626 223.084C198.733 222.961 198.871 222.9 199.04 222.9H210.747C210.915 222.9 211.053 222.961 211.161 223.084C211.283 223.191 211.345 223.329 211.345 223.498V225.821C211.345 226.112 211.245 226.373 211.046 226.603L203.985 235.389H211.023C211.191 235.389 211.329 235.45 211.437 235.573C211.559 235.68 211.621 235.818 211.621 235.987V238.425C211.621 238.594 211.559 238.732 211.437 238.839C211.329 238.946 211.191 239 211.023 239H198.833ZM220.554 239.23C218.377 239.23 216.66 238.701 215.402 237.643C214.145 236.585 213.478 235.029 213.401 232.974C213.386 232.545 213.378 231.885 213.378 230.996C213.378 230.107 213.386 229.44 213.401 228.995C213.463 226.971 214.13 225.415 215.402 224.326C216.69 223.222 218.408 222.67 220.554 222.67C222.686 222.67 224.388 223.222 225.66 224.326C226.948 225.415 227.623 226.971 227.684 228.995C227.715 229.884 227.73 230.551 227.73 230.996C227.73 231.456 227.715 232.115 227.684 232.974C227.608 235.029 226.941 236.585 225.683 237.643C224.441 238.701 222.732 239.23 220.554 239.23ZM220.554 235.78C221.352 235.78 221.988 235.542 222.463 235.067C222.939 234.576 223.192 233.833 223.222 232.836C223.253 231.947 223.268 231.31 223.268 230.927C223.268 230.544 223.253 229.923 223.222 229.064C223.192 228.067 222.939 227.331 222.463 226.856C221.988 226.365 221.352 226.12 220.554 226.12C219.742 226.12 219.098 226.365 218.622 226.856C218.147 227.331 217.894 228.067 217.863 229.064C217.848 229.493 217.84 230.114 217.84 230.927C217.84 231.755 217.848 232.391 217.863 232.836C217.894 233.833 218.147 234.576 218.622 235.067C219.098 235.542 219.742 235.78 220.554 235.78ZM219.036 221.75C218.791 221.75 218.668 221.627 218.668 221.382C218.668 221.259 218.707 221.16 218.783 221.083L220.83 218.576C220.984 218.392 221.114 218.277 221.221 218.231C221.344 218.17 221.497 218.139 221.681 218.139H225.039C225.177 218.139 225.285 218.185 225.361 218.277C225.438 218.354 225.476 218.461 225.476 218.599C225.476 218.706 225.438 218.798 225.361 218.875L222.279 221.405C222.126 221.528 221.988 221.62 221.865 221.681C221.743 221.727 221.589 221.75 221.405 221.75H219.036ZM232.722 239C232.461 239 232.247 238.931 232.078 238.793C231.925 238.64 231.833 238.456 231.802 238.241L229.341 223.521C229.326 223.49 229.318 223.444 229.318 223.383C229.318 223.26 229.364 223.153 229.456 223.061C229.563 222.954 229.678 222.9 229.801 222.9H232.814C233.259 222.9 233.504 223.076 233.55 223.429L234.953 232.123L236.54 227.086C236.663 226.672 236.916 226.465 237.299 226.465H239.024C239.407 226.465 239.66 226.672 239.783 227.086L241.37 232.1L242.796 223.429C242.827 223.245 242.896 223.115 243.003 223.038C243.11 222.946 243.279 222.9 243.509 222.9H246.522C246.66 222.9 246.775 222.954 246.867 223.061C246.959 223.153 247.005 223.26 247.005 223.383V223.521L244.544 238.241C244.513 238.456 244.414 238.64 244.245 238.793C244.076 238.931 243.869 239 243.624 239H241.301C241.056 239 240.864 238.939 240.726 238.816C240.588 238.693 240.496 238.555 240.45 238.402L238.173 232.031L235.896 238.402C235.835 238.555 235.735 238.693 235.597 238.816C235.459 238.939 235.267 239 235.022 239H232.722Z" fill="white"/>
<defs>
<linearGradient id="paint0_linear" x1="174.389" y1="-1.27817" x2="237.845" y2="53.714" gradientUnits="userSpaceOnUse">
<stop stop-color="#FBAA0D"/>
<stop offset="1" stop-color="#CE08D2"/>
</linearGradient>
<linearGradient id="paint1_linear" x1="308.177" y1="68.4721" x2="371.633" y2="123.464" gradientUnits="userSpaceOnUse">
<stop stop-color="#FBAA0D"/>
<stop offset="1" stop-color="#CE08D2"/>
</linearGradient>
<linearGradient id="paint2_linear" x1="38.7252" y1="68.4721" x2="102.181" y2="123.464" gradientUnits="userSpaceOnUse">
<stop stop-color="#FBAA0D"/>
<stop offset="1" stop-color="#CE08D2"/>
</linearGradient>
<linearGradient id="paint3_linear" x1="174.389" y1="357.597" x2="237.845" y2="412.589" gradientUnits="userSpaceOnUse">
<stop stop-color="#FBAA0D"/>
<stop offset="1" stop-color="#CE08D2"/>
</linearGradient>
<linearGradient id="paint4_linear" x1="308.177" y1="281.097" x2="371.633" y2="336.089" gradientUnits="userSpaceOnUse">
<stop stop-color="#FBAA0D"/>
<stop offset="1" stop-color="#CE08D2"/>
</linearGradient>
<linearGradient id="paint5_linear" x1="38.7252" y1="281.097" x2="102.181" y2="336.089" gradientUnits="userSpaceOnUse">
<stop stop-color="#FBAA0D"/>
<stop offset="1" stop-color="#CE08D2"/>
</linearGradient>
<linearGradient id="paint6_linear" x1="346.031" y1="177.972" x2="409.487" y2="232.964" gradientUnits="userSpaceOnUse">
<stop stop-color="#FBAA0D"/>
<stop offset="1" stop-color="#CE08D2"/>
</linearGradient>
<linearGradient id="paint7_linear" x1="2.74569" y1="177.965" x2="66.5027" y2="232.913" gradientUnits="userSpaceOnUse">
<stop stop-color="#FBAA0D"/>
<stop offset="1" stop-color="#CE08D2"/>
</linearGradient>
</defs>
</svg>
