<svg width="96" height="96" viewBox="0 0 96 96" fill="none" xmlns="http://www.w3.org/2000/svg">
<path d="M88.1 40.4C84.7 40.4 81.9 42.7 81.1 45.8H72C71.6 40.5 69.5 35.7 66.2 31.9L72.7 25.4C73.8 26 75 26.4 76.3 26.4C80.3 26.4 83.6 23.1 83.6 19.1C83.6 15.1 80.3 11.8 76.3 11.8C72.3 11.8 69 15.1 69 19.1C69 20.4 69.4 21.7 70 22.7L63.5 29.2C59.7 25.9 54.9 23.9 49.6 23.4V14.3C52.7 13.5 55 10.7 55 7.3C55 3.3 51.7 0 47.7 0C43.7 0 40.4 3.3 40.4 7.3C40.4 10.7 42.7 13.5 45.8 14.3V23.4C40.5 23.8 35.7 25.9 31.9 29.2L25.4 22.7C26 21.6 26.4 20.4 26.4 19.1C26.4 15.1 23.1 11.8 19.1 11.8C15.1 11.8 11.8 15.1 11.8 19.1C11.8 23.1 15.1 26.4 19.1 26.4C20.4 26.4 21.7 26 22.7 25.4L29.2 31.9C25.9 35.7 23.8 40.5 23.4 45.8H14.3C13.5 42.7 10.7 40.4 7.3 40.4C3.3 40.4 0 43.7 0 47.7C0 51.7 3.3 55 7.3 55C10.7 55 13.5 52.7 14.3 49.6H23.4C23.8 54.9 25.9 59.7 29.2 63.5L22.7 70C21.6 69.4 20.4 69 19.1 69C15.1 69 11.8 72.3 11.8 76.3C11.8 80.3 15.1 83.6 19.1 83.6C23.1 83.6 26.4 80.3 26.4 76.3C26.4 75 26 73.7 25.4 72.7L31.9 66.2C35.7 69.5 40.5 71.5 45.8 72V81.1C42.7 81.9 40.4 84.7 40.4 88.1C40.4 92.1 43.7 95.4 47.7 95.4C51.7 95.4 55 92.1 55 88.1C55 84.7 52.7 81.9 49.6 81.1V72C54.9 71.6 59.7 69.5 63.5 66.2L70 72.7C69.4 73.8 69 75 69 76.3C69 80.3 72.3 83.6 76.3 83.6C80.3 83.6 83.6 80.3 83.6 76.3C83.6 72.3 80.3 69 76.3 69C75 69 73.7 69.4 72.7 70L66.2 63.5C69.5 59.7 71.6 54.9 72 49.6H81.1C81.9 52.7 84.7 55 88.1 55C92.1 55 95.4 51.7 95.4 47.7C95.4 43.7 92.1 40.4 88.1 40.4ZM76.4 15.7C78.4 15.7 79.9 17.3 79.9 19.2C79.9 21.1 78.3 22.7 76.4 22.7C74.4 22.7 72.9 21.1 72.9 19.2C72.9 17.3 74.4 15.7 76.4 15.7ZM44.4 7.5C44.4 5.5 46 4 47.9 4C49.8 4 51.4 5.6 51.4 7.5C51.4 9.4 49.9 11 47.9 11C45.9 11 44.4 9.4 44.4 7.5ZM15.9 19.2C15.9 17.2 17.5 15.7 19.4 15.7C21.3 15.7 22.9 17.3 22.9 19.2C22.9 21.1 21.3 22.7 19.4 22.7C17.5 22.7 15.9 21.2 15.9 19.2ZM7.7 51.2C5.7 51.2 4.2 49.6 4.2 47.7C4.2 45.8 5.8 44.2 7.7 44.2C9.6 44.2 11.2 45.8 11.2 47.7C11.2 49.6 9.6 51.2 7.7 51.2ZM19.4 79.7C17.4 79.7 15.9 78.1 15.9 76.2C15.9 74.2 17.5 72.7 19.4 72.7C21.3 72.7 22.9 74.3 22.9 76.2C23 78.1 21.4 79.7 19.4 79.7ZM51.4 87.9C51.4 89.9 49.8 91.4 47.9 91.4C46 91.4 44.4 89.8 44.4 87.9C44.4 86 46 84.4 47.9 84.4C49.8 84.4 51.4 86 51.4 87.9ZM79.9 76.2C79.9 78.2 78.3 79.7 76.4 79.7C74.4 79.7 72.9 78.1 72.9 76.2C72.9 74.2 74.5 72.7 76.4 72.7C78.3 72.6 79.9 74.2 79.9 76.2ZM47.9 68.2C36.6 68.2 27.4 59 27.4 47.7C27.4 36.4 36.6 27.2 47.9 27.2C59.2 27.2 68.4 36.4 68.4 47.7C68.4 59 59.2 68.2 47.9 68.2ZM88.1 51.2C86.1 51.2 84.6 49.6 84.6 47.7C84.6 45.8 86.2 44.2 88.1 44.2C90 44.2 91.6 45.8 91.6 47.7C91.6 49.6 90.1 51.2 88.1 51.2Z" fill="white"/>
</svg>
