<svg width="96" height="96" viewBox="0 0 96 96" fill="none" xmlns="http://www.w3.org/2000/svg">
<g clip-path="url(#clip0)">
<path d="M88.1 40.4C84.7 40.4 81.9 42.7 81.1 45.8H72C71.6 40.5 69.5 35.7 66.2 31.9L72.7 25.4C73.8 26 75 26.4 76.3 26.4C80.3 26.4 83.6 23.1 83.6 19.1C83.6 15.1 80.3 11.8 76.3 11.8C72.3 11.8 69 15.1 69 19.1C69 20.4 69.4 21.7 70 22.7L63.5 29.2C59.7 25.9 54.9 23.9 49.6 23.4V14.3C52.7 13.5 55 10.7 55 7.3C55 3.3 51.7 0 47.7 0C43.7 0 40.4 3.3 40.4 7.3C40.4 10.7 42.7 13.5 45.8 14.3V23.4C40.5 23.8 35.7 25.9 31.9 29.2L25.4 22.7C26 21.6 26.4 20.4 26.4 19.1C26.4 15.1 23.1 11.8 19.1 11.8C15.1 11.8 11.8 15.1 11.8 19.1C11.8 23.1 15.1 26.4 19.1 26.4C20.4 26.4 21.7 26 22.7 25.4L29.2 31.9C25.9 35.7 23.8 40.5 23.4 45.8H14.3C13.5 42.7 10.7 40.4 7.3 40.4C3.3 40.4 0 43.7 0 47.7C0 51.7 3.3 55 7.3 55C10.7 55 13.5 52.7 14.3 49.6H23.4C23.8 54.9 25.9 59.7 29.2 63.5L22.7 70C21.6 69.4 20.4 69 19.1 69C15.1 69 11.8 72.3 11.8 76.3C11.8 80.3 15.1 83.6 19.1 83.6C23.1 83.6 26.4 80.3 26.4 76.3C26.4 75 26 73.7 25.4 72.7L31.9 66.2C35.7 69.5 40.5 71.5 45.8 72V81.1C42.7 81.9 40.4 84.7 40.4 88.1C40.4 92.1 43.7 95.4 47.7 95.4C51.7 95.4 55 92.1 55 88.1C55 84.7 52.7 81.9 49.6 81.1V72C54.9 71.6 59.7 69.5 63.5 66.2L70 72.7C69.4 73.8 69 75 69 76.3C69 80.3 72.3 83.6 76.3 83.6C80.3 83.6 83.6 80.3 83.6 76.3C83.6 72.3 80.3 69 76.3 69C75 69 73.7 69.4 72.7 70L66.2 63.5C69.5 59.7 71.6 54.9 72 49.6H81.1C81.9 52.7 84.7 55 88.1 55C92.1 55 95.4 51.7 95.4 47.7C95.4 43.7 92.1 40.4 88.1 40.4ZM76.4 15.7C78.4 15.7 79.9 17.3 79.9 19.2C79.9 21.1 78.3 22.7 76.4 22.7C74.4 22.7 72.9 21.1 72.9 19.2C72.9 17.3 74.4 15.7 76.4 15.7ZM44.4 7.5C44.4 5.5 46 4 47.9 4C49.8 4 51.4 5.6 51.4 7.5C51.4 9.4 49.9 11 47.9 11C45.9 11 44.4 9.4 44.4 7.5ZM15.9 19.2C15.9 17.2 17.5 15.7 19.4 15.7C21.3 15.7 22.9 17.3 22.9 19.2C22.9 21.1 21.3 22.7 19.4 22.7C17.5 22.7 15.9 21.2 15.9 19.2ZM7.7 51.2C5.7 51.2 4.2 49.6 4.2 47.7C4.2 45.8 5.8 44.2 7.7 44.2C9.6 44.2 11.2 45.8 11.2 47.7C11.2 49.6 9.6 51.2 7.7 51.2ZM19.4 79.7C17.4 79.7 15.9 78.1 15.9 76.2C15.9 74.2 17.5 72.7 19.4 72.7C21.3 72.7 22.9 74.3 22.9 76.2C23 78.1 21.4 79.7 19.4 79.7ZM51.4 87.9C51.4 89.9 49.8 91.4 47.9 91.4C46 91.4 44.4 89.8 44.4 87.9C44.4 86 46 84.4 47.9 84.4C49.8 84.4 51.4 86 51.4 87.9ZM79.9 76.2C79.9 78.2 78.3 79.7 76.4 79.7C74.4 79.7 72.9 78.1 72.9 76.2C72.9 74.2 74.5 72.7 76.4 72.7C78.3 72.6 79.9 74.2 79.9 76.2ZM47.9 68.2C36.6 68.2 27.4 59 27.4 47.7C27.4 36.4 36.6 27.2 47.9 27.2C59.2 27.2 68.4 36.4 68.4 47.7C68.4 59 59.2 68.2 47.9 68.2ZM88.1 51.2C86.1 51.2 84.6 49.6 84.6 47.7C84.6 45.8 86.2 44.2 88.1 44.2C90 44.2 91.6 45.8 91.6 47.7C91.6 49.6 90.1 51.2 88.1 51.2Z" fill="white"/>
<path d="M53.7995 44.9C54.8995 43.5 55.6995 41.8 55.6995 39.9C55.6995 35.6 52.1995 32.1 47.8995 32.1C43.5995 32.1 40.0995 35.6 40.0995 39.9C40.0995 41.8 40.7995 43.5 41.9995 44.9C39.6995 46.1 37.9995 48.4 37.5995 51.1L36.8995 57.4C36.7995 58.3 37.3995 59.2 38.2995 59.4C41.3995 60.2 44.5995 60.5 47.8995 60.5C51.1995 60.5 54.3995 60.1 57.4995 59.4C58.3995 59.2 58.9995 58.3 58.8995 57.4L58.0995 51.1C57.7995 48.4 56.0995 46.2 53.7995 44.9ZM47.8995 35.9C50.0995 35.9 51.8995 37.7 51.8995 39.9C51.8995 42.1 50.0995 43.9 47.8995 43.9C45.6995 43.9 43.8995 42.1 43.8995 39.9C43.8995 37.7 45.6995 35.9 47.8995 35.9ZM40.7995 56.2L41.3995 51.6C41.6995 49.4 43.4995 47.7 45.7995 47.7H50.1995C52.3995 47.7 54.2995 49.4 54.5995 51.6L55.1995 56.2C50.3995 57.1 45.3995 57.1 40.7995 56.2Z" fill="url(#paint0_linear)"/>
<path d="M76.3 26.4C72.3 26.4 69 23.1 69 19.1C69 15.1 72.3 11.8 76.3 11.8C80.3 11.8 83.6 15.1 83.6 19.1C83.6 23.1 80.3 26.4 76.3 26.4ZM76.3 15.9C74.6 15.9 73.1 17.3 73.1 19.1C73.1 20.8 74.5 22.3 76.3 22.3C78 22.3 79.5 20.9 79.5 19.1C79.4 17.3 78 15.9 76.3 15.9Z" fill="url(#paint1_linear)"/>
<path d="M19.0998 26.4C15.0998 26.4 11.7998 23.1 11.7998 19.1C11.7998 15.1 15.0998 11.8 19.0998 11.8C23.0998 11.8 26.3998 15.1 26.3998 19.1C26.3998 23.1 23.0998 26.4 19.0998 26.4ZM19.0998 15.9C17.3998 15.9 15.8998 17.3 15.8998 19.1C15.8998 20.8 17.2998 22.3 19.0998 22.3C20.8998 22.3 22.2998 20.9 22.2998 19.1C22.2998 17.3 20.7998 15.9 19.0998 15.9Z" fill="url(#paint2_linear)"/>
<path d="M7.3 55C3.3 55 0 51.7 0 47.7C0 43.7 3.3 40.4 7.3 40.4C11.3 40.4 14.6 43.7 14.6 47.7C14.6 51.7 11.3 55 7.3 55ZM7.3 44.5C5.6 44.5 4.1 45.9 4.1 47.7C4.1 49.4 5.5 50.9 7.3 50.9C9.1 50.9 10.5 49.5 10.5 47.7C10.4 46 9 44.5 7.3 44.5Z" fill="url(#paint3_linear)"/>
<path d="M88.0998 55C84.0998 55 80.7998 51.7 80.7998 47.7C80.7998 43.7 84.0998 40.4 88.0998 40.4C92.0998 40.4 95.3998 43.7 95.3998 47.7C95.3998 51.7 92.0998 55 88.0998 55ZM88.0998 44.5C86.3998 44.5 84.8998 45.9 84.8998 47.7C84.8998 49.4 86.2998 50.9 88.0998 50.9C89.8998 50.9 91.2998 49.5 91.2998 47.7C91.2998 46 89.7998 44.5 88.0998 44.5Z" fill="url(#paint4_linear)"/>
<path d="M47.7004 14.6C43.7004 14.6 40.4004 11.3 40.4004 7.3C40.4004 3.3 43.7004 0 47.7004 0C51.7004 0 55.0004 3.3 55.0004 7.3C55.0004 11.3 51.7004 14.6 47.7004 14.6ZM47.7004 4.1C46.0004 4.1 44.5004 5.5 44.5004 7.3C44.5004 9.1 45.9004 10.5 47.7004 10.5C49.4004 10.5 50.9004 9.1 50.9004 7.3C50.9004 5.5 49.4004 4.1 47.7004 4.1Z" fill="url(#paint5_linear)"/>
<path d="M76.3 83.6C72.3 83.6 69 80.3 69 76.3C69 72.3 72.3 69 76.3 69C80.3 69 83.6 72.3 83.6 76.3C83.6 80.3 80.3 83.6 76.3 83.6ZM76.3 73.2C74.6 73.2 73.1 74.6 73.1 76.4C73.1 78.2 74.5 79.6 76.3 79.6C78 79.6 79.5 78.2 79.5 76.4C79.5 74.6 78 73.2 76.3 73.2Z" fill="url(#paint6_linear)"/>
<path d="M19.0998 83.6C15.0998 83.6 11.7998 80.3 11.7998 76.3C11.7998 72.3 15.0998 69 19.0998 69C23.0998 69 26.3998 72.3 26.3998 76.3C26.3998 80.3 23.0998 83.6 19.0998 83.6ZM19.0998 73.2C17.3998 73.2 15.8998 74.6 15.8998 76.4C15.8998 78.2 17.2998 79.6 19.0998 79.6C20.8998 79.6 22.2998 78.2 22.2998 76.4C22.2998 74.6 20.7998 73.2 19.0998 73.2Z" fill="url(#paint7_linear)"/>
<path d="M47.7004 95.4C43.7004 95.4 40.4004 92.1 40.4004 88.1C40.4004 84.1 43.7004 80.8 47.7004 80.8C51.7004 80.8 55.0004 84.1 55.0004 88.1C55.0004 92.1 51.7004 95.4 47.7004 95.4ZM47.7004 85C46.0004 85 44.5004 86.4 44.5004 88.2C44.5004 90 45.9004 91.4 47.7004 91.4C49.4004 91.4 50.9004 90 50.9004 88.2C50.9004 86.4 49.4004 85 47.7004 85Z" fill="url(#paint8_linear)"/>
</g>
<defs>
<linearGradient id="paint0_linear" x1="37.6452" y1="31.5622" x2="64.3301" y2="54.607" gradientUnits="userSpaceOnUse">
<stop stop-color="#FBAA0D"/>
<stop offset="1" stop-color="#CE08D2"/>
</linearGradient>
<linearGradient id="paint1_linear" x1="69.5015" y1="11.5235" x2="83.2876" y2="26.8773" gradientUnits="userSpaceOnUse">
<stop stop-color="#FBAA0D"/>
<stop offset="1" stop-color="#CE08D2"/>
</linearGradient>
<linearGradient id="paint2_linear" x1="12.3013" y1="11.5235" x2="26.0874" y2="26.8773" gradientUnits="userSpaceOnUse">
<stop stop-color="#FBAA0D"/>
<stop offset="1" stop-color="#CE08D2"/>
</linearGradient>
<linearGradient id="paint3_linear" x1="0.501531" y1="40.1236" x2="14.2876" y2="55.4773" gradientUnits="userSpaceOnUse">
<stop stop-color="#FBAA0D"/>
<stop offset="1" stop-color="#CE08D2"/>
</linearGradient>
<linearGradient id="paint4_linear" x1="81.3013" y1="40.1236" x2="95.0874" y2="55.4773" gradientUnits="userSpaceOnUse">
<stop stop-color="#FBAA0D"/>
<stop offset="1" stop-color="#CE08D2"/>
</linearGradient>
<linearGradient id="paint5_linear" x1="40.9019" y1="-0.276464" x2="54.688" y2="15.0773" gradientUnits="userSpaceOnUse">
<stop stop-color="#FBAA0D"/>
<stop offset="1" stop-color="#CE08D2"/>
</linearGradient>
<linearGradient id="paint6_linear" x1="69.5015" y1="68.7235" x2="83.2876" y2="84.0773" gradientUnits="userSpaceOnUse">
<stop stop-color="#FBAA0D"/>
<stop offset="1" stop-color="#CE08D2"/>
</linearGradient>
<linearGradient id="paint7_linear" x1="12.3013" y1="68.7235" x2="26.0874" y2="84.0773" gradientUnits="userSpaceOnUse">
<stop stop-color="#FBAA0D"/>
<stop offset="1" stop-color="#CE08D2"/>
</linearGradient>
<linearGradient id="paint8_linear" x1="40.9019" y1="80.5235" x2="54.688" y2="95.8773" gradientUnits="userSpaceOnUse">
<stop stop-color="#FBAA0D"/>
<stop offset="1" stop-color="#CE08D2"/>
</linearGradient>
<clipPath id="clip0">
<rect width="95.4" height="95.4" fill="white"/>
</clipPath>
</defs>
</svg>
