<svg width="83" height="83" viewBox="0 0 83 83" fill="none" xmlns="http://www.w3.org/2000/svg">
<g clip-path="url(#clip0)">
<path d="M57.3996 37.9C58.2996 37.9 59.0996 37.6 59.6996 37L74.4996 22.7C79.5996 17.4 79.5996 9.1 74.4996 3.9C72.2996 1.7 69.2996 0.4 66.1996 0.4C62.9996 0.4 59.8996 1.5 57.3996 3.5C54.6996 1.2 52.0996 0 49.5996 0C46.0996 0 42.7996 1.4 40.2996 3.9C35.1996 9.2 35.1996 17.5 40.2996 22.8L55.0996 37C55.6996 37.6 56.5996 37.9 57.3996 37.9ZM43.1996 6.7C44.8996 5 47.1996 4 49.5996 4C51.3996 4 53.5996 5.2 55.9996 7.6C56.7996 8.4 58.0996 8.4 58.9996 7.6C60.8996 5.7 63.5996 4.5 66.2996 4.5C68.2996 4.5 70.2996 5.3 71.6996 6.8C75.1996 10.5 75.1996 16.3 71.6996 20L57.3996 33.7L43.1996 19.9C39.6996 16.2 39.6996 10.4 43.1996 6.7Z" fill="white"/>
<path d="M80.9003 44.9C78.3003 42.2 73.9003 42.1 71.2003 44.7L56.2003 58.9L41.8003 60.6L39.6003 57.5L50.1003 54.6C53.8003 53.9 56.2003 50.3 55.5003 46.6C54.8003 42.9 51.2003 40.5 47.5003 41.2L24.8003 44.1C23.1003 44.3 21.6003 44.9 20.3003 46L0.700339 63C-0.0996609 63.7 -0.199661 65 0.500339 65.8L0.600339 65.9L16.5003 81.8C16.9003 82.2 17.4003 82.4 17.9003 82.4C18.4003 82.4 18.9003 82.2 19.3003 81.8L25.0003 75.9L55.9003 75.8C58.0003 75.8 60.0003 75 61.5003 73.5L80.8003 54.6C83.5003 52 83.5003 47.6 80.9003 44.9ZM78.0003 51.8L58.7003 70.6C58.0003 71.3 57.0003 71.7 55.9003 71.7L24.2003 71.8C23.7003 71.8 23.1003 72 22.8003 72.4L18.0003 77.4L5.00034 64.4L23.0003 49C23.6003 48.4 24.5003 48.1 25.3003 48L48.0003 45.2C49.5003 45 50.9003 46.1 51.1003 47.6C51.3003 49 50.4003 50.3 49.0003 50.7L35.7003 54.3C34.6003 54.6 34.0003 55.7 34.3003 56.8C34.4003 57 34.5003 57.2 34.6003 57.4L39.1003 63.8C39.5003 64.4 40.2003 64.7 41.0003 64.6L57.3003 62.7C57.7003 62.6 58.1003 62.4 58.4003 62.2L73.9003 47.6C75.2003 46.6 77.0003 46.8 78.0003 48.1C78.9003 49.2 78.8003 50.7 78.0003 51.8Z" fill="url(#paint0_linear)"/>
</g>
<defs>
<linearGradient id="paint0_linear" x1="2.87673" y1="40.2963" x2="32.1646" y2="105.662" gradientUnits="userSpaceOnUse">
<stop stop-color="#FBAA0D"/>
<stop offset="1" stop-color="#CE08D2"/>
</linearGradient>
<clipPath id="clip0">
<rect width="82.8" height="82.4" fill="white"/>
</clipPath>
</defs>
</svg>
