<svg width="97" height="89" viewBox="0 0 97 89" fill="none" xmlns="http://www.w3.org/2000/svg">
<g clip-path="url(#clip0)">
<path d="M96.2005 28.3C96.2005 20.7 93.1005 13.4 87.7005 8.20002C76.7005 -2.29998 59.4005 -2.69998 47.9005 7.20002C36.2005 -2.69998 19.1005 -2.09998 8.20047 8.40002C2.90047 13.6 -0.0995304 20.8 0.000469598 28.2C0.000469598 36.1 3.10047 43.6 8.60047 49.2C7.50047 52.2 8.40047 55.6 10.7005 57.9C12.4005 59.5 14.6005 60.4 16.9005 60.4C17.2005 60.4 17.6005 60.4 17.9005 60.4C17.5005 63 18.4005 65.6 20.4005 67.4C22.1005 69 24.3005 69.9 26.6005 69.9C26.9005 69.9 27.3005 69.9 27.6005 69.9C27.2005 72.5 28.1005 75.1 30.1005 76.9C31.8005 78.5 34.0005 79.4 36.3005 79.4C36.6005 79.3 37.0005 79.2 37.3005 79.1C37.3005 79.4 37.3005 79.7 37.3005 80C37.4005 84.9 41.5005 88.7 46.3005 88.6C48.4005 88.5 50.5005 87.7 52.0005 86.3L57.8005 80.5C58.5005 79.8 59.0005 79.1 59.4005 78.2C62.4005 79 65.5005 78.2 67.8005 76C69.7005 74.3 70.7005 71.7 70.3005 69.1C70.6005 69.1 70.8005 69.1 71.1005 69.1C73.4005 69.1 75.6005 68.2 77.3005 66.6C79.3005 64.8 80.2005 62.2 79.8005 59.5C82.5005 59.9 85.2005 59 87.1005 57.1C89.7005 54.6 90.4005 50.7 88.9005 47.5C93.4005 42.1 96.1005 35.3 96.2005 28.3ZM13.5005 55C11.7005 53.2 11.6005 50.3 13.4005 48.5L13.5005 48.4L19.3005 42.6C21.2005 40.7 24.3005 40.7 26.2005 42.6C28.0005 44.4 28.1005 47.3 26.3005 49.1L26.2005 49.2L20.4005 55C18.5005 56.9 15.4005 56.9 13.5005 55ZM23.1005 64.4C21.3005 62.6 21.2005 59.7 23.0005 57.9L23.1005 57.8L28.9005 52C30.8005 50.1 33.9005 50.1 35.8005 52C37.6005 53.8 37.7005 56.7 35.9005 58.5L35.8005 58.6L30.0005 64.4C28.1005 66.3 25.0005 66.3 23.1005 64.4ZM39.6005 73.7C37.7005 75.6 34.6005 75.6 32.7005 73.7C30.9005 71.9 30.8005 69 32.6005 67.2L32.7005 67.1L38.5005 61.3C40.4005 59.4 43.5005 59.4 45.4005 61.3C47.2005 63.1 47.3005 66 45.5005 67.8L45.4005 67.9L39.6005 73.7ZM55.2005 77.6L49.4005 83.4C47.5005 85.3 44.4005 85.3 42.5005 83.4C41.6005 82.5 41.0005 81.2 41.0005 79.9C40.9005 78.6 41.4005 77.4 42.3005 76.5L48.1005 70.7C50.1005 68.9 53.2005 68.9 55.2005 70.8C57.1005 72.5 57.2005 75.4 55.4005 77.3C55.3005 77.4 55.2005 77.5 55.2005 77.6ZM84.1005 54.2C82.2005 56 79.1005 56 77.2005 54.2C77.0005 54 76.8005 53.9 76.5005 53.8L63.5005 41.2C62.7005 40.5 61.5005 40.6 60.8005 41.4C60.2005 42.1 60.2005 43.2 60.8005 43.9L74.3005 57C76.1005 58.7 76.2005 61.6 74.5005 63.4C74.4005 63.5 74.4005 63.5 74.3005 63.6C72.6005 65.2 70.0005 65.4 68.0005 64.1C67.9005 63.9 67.7005 63.8 67.6005 63.6L54.2005 50.5C53.5005 49.7 52.3005 49.6 51.5005 50.3C50.7005 51 50.6005 52.2 51.3005 53C51.4005 53.1 51.4005 53.1 51.5005 53.2L64.4005 65.7C64.5005 65.9 64.6005 66.1 64.8005 66.3C65.0005 66.5 65.2005 66.6 65.4005 66.8C66.0005 67.6 66.4005 68.6 66.4005 69.6C66.4005 70.9 65.8005 72.1 64.9005 73C63.7005 74.1 62.0005 74.6 60.4005 74.2C60.4005 71.9 59.5005 69.7 57.8005 68.1C55.9005 66.3 53.2005 65.4 50.5005 65.7C50.9005 63.1 50.0005 60.4 48.0005 58.6C46.1005 56.8 43.5005 55.9 40.9005 56.2C41.3005 53.6 40.4005 51 38.4005 49.2C36.5005 47.4 33.9005 46.5 31.3005 46.8C31.7005 44.2 30.8005 41.6 28.8005 39.8C25.4005 36.5 19.9005 36.5 16.5005 39.8L10.7005 45.6C6.30047 41 3.90047 34.7 3.80047 28.2C3.70047 21.8 6.20047 15.7 10.8005 11.2C20.2005 2.20002 34.8005 1.60002 44.9005 9.80002L33.2005 21.3C29.8005 24.2 29.3005 29.3 32.2005 32.8C32.4005 33 32.6005 33.3 32.9005 33.5C36.3005 36.8 41.7005 36.8 45.1005 33.5L57.7005 21.3L71.2005 34.8L84.2005 47.7C86.0005 49.4 86.0005 52.3 84.3005 54.1C84.2005 54.1 84.2005 54.2 84.1005 54.2ZM86.2005 44.2L73.8005 32L59.0005 17.3C58.9005 17.2 58.8005 17.2 58.7005 17.1C58.6005 17 58.5005 16.9 58.4005 16.9C58.3005 16.9 58.2005 16.9 58.1005 16.9C57.9005 16.8 57.6005 16.8 57.4005 16.9C57.3005 16.9 57.2005 16.9 57.0005 16.9C56.9005 17 56.8005 17 56.7005 17.1C56.6005 17.2 56.5005 17.2 56.4005 17.3L42.5005 30.7C40.6005 32.6 37.5005 32.6 35.6005 30.7C34.7005 29.9 34.2005 28.7 34.3005 27.5C34.4005 26.2 35.0005 25 36.0005 24.2L49.3005 11.2C59.2005 1.50002 75.0005 1.40002 85.1005 10.9C94.2005 19.9 94.8005 34.6 86.2005 44.2Z" fill="white"/>
<path d="M86.8996 45L88.6996 47.3C93.4996 42.2 96.1996 35.4 96.1996 28.4C96.1996 20.8 93.0996 13.5 87.6996 8.3C76.6996 -2.2 59.3996 -2.6 47.8996 7.3L44.9996 9.8L33.1996 21.3C29.7996 24.2 29.2996 29.3 32.1996 32.8C32.3996 33 32.5996 33.3 32.8996 33.5C36.2996 36.8 41.6996 36.8 45.1996 33.5L60.3996 18.6L58.9996 17.3C58.8996 17.2 58.7996 17.2 58.6996 17.1C58.5996 17 58.4996 16.9 58.3996 16.9C58.2996 16.9 58.1996 16.9 58.0996 16.9C57.8996 16.8 57.5996 16.8 57.3996 16.9C57.2996 16.9 57.1996 16.9 56.9996 16.9C56.8996 17 56.7996 17 56.6996 17.1C56.5996 17.2 56.4996 17.2 56.3996 17.3L42.4996 30.7C40.5996 32.6 37.4996 32.6 35.5996 30.7C34.6996 29.9 34.1996 28.7 34.2996 27.5C34.3996 26.2 34.9996 25 35.9996 24.2L49.2996 11.2C59.1996 1.5 74.9996 1.4 85.0996 10.9C94.3996 19.9 94.8996 34.5 86.3996 44.2" fill="url(#paint0_linear)"/>
<path d="M50.5999 65.8C50.9999 63.2 50.0999 60.5 48.0999 58.7C46.1999 56.9 43.5999 56 40.9999 56.3C41.3999 53.7 40.4999 51.1 38.4999 49.3C36.5999 47.5 33.9999 46.6 31.3999 46.9C31.7999 44.3 30.8999 41.7 28.8999 39.9C25.4999 36.6 19.9999 36.6 16.5999 39.9L10.7999 45.7L8.59988 49.1C7.49988 52.1 8.39988 55.5 10.6999 57.8C12.3999 59.4 14.5999 60.3 16.8999 60.3C17.1999 60.3 17.5999 60.3 17.8999 60.3C17.4999 62.9 18.3999 65.5 20.3999 67.3C22.0999 68.9 24.2999 69.8 26.5999 69.8C26.8999 69.8 27.2999 69.8 27.5999 69.8C27.1999 72.4 28.0999 75 30.0999 76.8C31.7999 78.4 33.9999 79.3 36.2999 79.3C36.5999 79.2 36.9999 79.1 37.2999 79C37.2999 79.3 37.2999 79.6 37.2999 79.9C37.3999 84.8 41.4999 88.6 46.2999 88.5C48.3999 88.4 50.4999 87.6 51.9999 86.2L57.7999 80.4C58.4999 79.7 58.9999 79 59.3999 78.1L60.4999 74.5C60.4999 72.2 59.5999 70 57.8999 68.4C55.8999 66.4 53.2999 65.5 50.5999 65.8ZM13.4999 55C11.6999 53.2 11.5999 50.3 13.3999 48.5L13.4999 48.4L19.2999 42.6C21.1999 40.7 24.2999 40.7 26.1999 42.6C27.9999 44.4 28.0999 47.3 26.2999 49.1L26.1999 49.2L20.3999 55C18.4999 56.9 15.3999 56.9 13.4999 55ZM23.0999 64.4C21.2999 62.6 21.1999 59.7 22.9999 57.9L23.0999 57.8L28.8999 52C30.7999 50.1 33.8999 50.1 35.7999 52C37.5999 53.8 37.6999 56.7 35.8999 58.5L35.7999 58.6L29.9999 64.4C28.0999 66.3 24.9999 66.3 23.0999 64.4ZM39.5999 73.7C37.6999 75.6 34.5999 75.6 32.6999 73.7C30.8999 71.9 30.7999 69 32.5999 67.2L32.6999 67.1L38.4999 61.3C40.3999 59.4 43.4999 59.4 45.3999 61.3C47.1999 63.1 47.2999 66 45.4999 67.8L45.3999 67.9L39.5999 73.7ZM55.3999 77.3C55.2999 77.4 55.2999 77.4 55.1999 77.5V77.6L49.3999 83.4C47.4999 85.3 44.3999 85.3 42.4999 83.4C41.5999 82.5 40.9999 81.2 40.9999 79.9C40.8999 78.6 41.3999 77.4 42.2999 76.5L48.0999 70.7C50.0999 68.9 53.1999 68.9 55.1999 70.8C56.9999 72.6 57.0999 75.5 55.3999 77.3Z" fill="url(#paint1_linear)"/>
</g>
<defs>
<linearGradient id="paint0_linear" x1="32.5673" y1="-0.752005" x2="73.3064" y2="62.6465" gradientUnits="userSpaceOnUse">
<stop stop-color="#FBAA0D"/>
<stop offset="1" stop-color="#CE08D2"/>
</linearGradient>
<linearGradient id="paint1_linear" x1="9.9317" y1="36.4578" x2="58.0175" y2="91.3644" gradientUnits="userSpaceOnUse">
<stop stop-color="#FBAA0D"/>
<stop offset="1" stop-color="#CE08D2"/>
</linearGradient>
<clipPath id="clip0">
<rect width="96.2" height="88.3" fill="white"/>
</clipPath>
</defs>
</svg>
