<svg width="1088" height="3076" viewBox="0 0 1088 3076" fill="none" xmlns="http://www.w3.org/2000/svg">
<path opacity="0.1" fill-rule="evenodd" clip-rule="evenodd" d="M600.348 800.965C619.476 977.64 639.186 1159.7 370.782 1322.37C75.1776 1506.39 0.0904818 1650.33 9.55001e-05 1927.5H0C3.14305e-05 1927.5 6.28632e-05 1927.5 9.4298e-05 1927.5C4.07772e-05 1927.67 1.39444e-05 1927.83 1.37687e-05 1928H0.0128538C5.5929 2143.09 76.646 2432.28 370.782 2610.63C585.464 2740.74 615.823 2883.26 609.588 3025.5C606.307 3100.36 640 3068.5 640 3068.5L766 3075.5H981H1089.39V3037.5V1928V1927.5V1846.5V0C1038.67 123.672 950.601 242.891 801.191 329.565C564.214 467.217 582.013 631.619 600.348 800.965Z" fill="url(#paint0_linear)"/>
<defs>
<linearGradient id="paint0_linear" x1="-20.6285" y1="1931.3" x2="1649.21" y2="1114.62" gradientUnits="userSpaceOnUse">
<stop stop-color="#FBAA0D"/>
<stop offset="1" stop-color="#CE08D2" stop-opacity="0.38"/>
</linearGradient>
</defs>
</svg>
